<svg width="227" height="227" viewBox="0 0 227 227" fill="none" xmlns="http://www.w3.org/2000/svg">
<rect x="5" y="5" width="216.56" height="216.56" fill="#7A7A7A" stroke="#FFC9AB" stroke-width="10"/>
<mask id="path-2-inside-1_4_149" fill="white">
<path d="M113.5 20C137.239 20 160.09 29.0298 177.416 45.2577C194.742 61.4856 205.247 83.6965 206.8 107.385C208.352 131.073 200.836 154.465 185.776 172.816C170.717 191.166 149.24 203.102 125.704 206.2C102.168 209.299 78.3346 203.329 59.0383 189.501C39.742 175.674 26.4278 155.024 21.7966 131.741C17.1653 108.458 21.5637 84.285 34.0996 64.1256C46.6355 43.9663 66.3702 29.3301 89.3004 23.1859L113.5 113.5L113.5 20Z"/>
</mask>
<path d="M113.5 20C137.239 20 160.09 29.0298 177.416 45.2577C194.742 61.4856 205.247 83.6965 206.8 107.385C208.352 131.073 200.836 154.465 185.776 172.816C170.717 191.166 149.24 203.102 125.704 206.2C102.168 209.299 78.3346 203.329 59.0383 189.501C39.742 175.674 26.4278 155.024 21.7966 131.741C17.1653 108.458 21.5637 84.285 34.0996 64.1256C46.6355 43.9663 66.3702 29.3301 89.3004 23.1859L113.5 113.5L113.5 20Z" stroke="#FFC9AB" stroke-width="20" mask="url(#path-2-inside-1_4_149)"/>
</svg>
